# xmcd CD database file
#
# Track frame offsets:
#	182
#	18160
#	42400
#	57217
#	68625
#	93177
#	105267
#	119005
#	141920
#	154220
#	173742
#	186207
#
# Disc length: 2794 seconds
#
# Revision: 1
# Processed by: cddbd v1.5.1PL0 Copyright (c) Steve Scherf et al.
# Submitted via: CDex 1.51
#
DISCID=9a0ae80c
DTITLE=Chris Barber Jazz and Blues and Dr. John - Get yourself to Jackson Square
DYEAR=1989
DGENRE=Jazz
TTITLE0=Down on the Bayou
TTITLE1=They took my money
TTITLE2=Baby o'mine
TTITLE3=Waiting for a train
TTITLE4=Corrinne across the sea
TTITLE5=Drinking wine spo-dee-o-dee
TTITLE6=Battersea raindance - Crocker's eleven
TTITLE7=Black widow
TTITLE8=Get yourself to Jackson Square
TTITLE9=Skippin' and jumpin'
TTITLE10=Pick and shovel
TTITLE11=Oh! Didn't he ramble
EXTD=YEAR: 1989
EXTT0=
EXTT1=
EXTT2=
EXTT3=
EXTT4=
EXTT5=
EXTT6=
EXTT7=
EXTT8=
EXTT9=
EXTT10=
EXTT11=
PLAYORDER=
